<svg width="1250" height="175" xmlns="http://www.w3.org/2000/svg" fill="#488884">
  <title>Jade Garden</title>
  <g>
    <path vector-effect="non-scaling-stroke" d="m674.19999,43.0992l-14,14.6a74.429,74.429 0 0 0 -7.617,-6.469a61.704,61.704 0 0 0 -4.683,-3.131a57.557,57.557 0 0 0 -11.255,-5.272a52.923,52.923 0 0 0 -1.645,-0.528q-6.6,-2 -13.2,-2a53.722,53.722 0 0 0 -13.443,1.637a47.423,47.423 0 0 0 -6.457,2.163q-9.1,3.8 -16,10.6q-6.9,6.8 -10.7,15.9a49.751,49.751 0 0 0 -3.666,15.91a58.824,58.824 0 0 0 -0.134,3.99q0,10.4 4,19.7q4,9.3 11.1,16.3q7.1,7 16.4,11q9.3,4 19.7,4a47.398,47.398 0 0 0 13.701,-1.955a44.638,44.638 0 0 0 1.099,-0.345a41.764,41.764 0 0 0 9.781,-4.636a38.017,38.017 0 0 0 2.619,-1.864a32.74,32.74 0 0 0 6.054,-6.072a29.061,29.061 0 0 0 2.346,-3.628q3,-5.5 3,-11.7l0,-4l3,2.8l-42.8,0l0,-21.4l62,0a51.442,51.442 0 0 1 0.574,4.037a47.189,47.189 0 0 1 0.026,0.263q0.2,2.1 0.3,4a70.611,70.611 0 0 1 0.1,3.587a65.006,65.006 0 0 1 0,0.113a68.674,68.674 0 0 1 -1.67,15.41a57.867,57.867 0 0 1 -3.13,9.69q-4.8,11.3 -13.3,19.5q-8.5,8.2 -19.8,12.7a64.268,64.268 0 0 1 -20.421,4.39a74.95,74.95 0 0 1 -4.079,0.11a74.127,74.127 0 0 1 -24.015,-3.843a69.771,69.771 0 0 1 -4.385,-1.657q-13.2,-5.5 -23.2,-15.3q-10,-9.8 -15.5,-22.9a71.571,71.571 0 0 1 -5.452,-25.468a82.435,82.435 0 0 1 -0.048,-2.832a72.111,72.111 0 0 1 3.843,-23.681a67.963,67.963 0 0 1 1.657,-4.319q5.5,-13 15.4,-22.7q9.9,-9.7 23.1,-15.1a73.742,73.742 0 0 1 26.449,-5.378a84.505,84.505 0 0 1 1.951,-0.022q10.6,0 20.7,3a69.866,69.866 0 0 1 15.158,6.459a63.804,63.804 0 0 1 3.142,1.941a56.368,56.368 0 0 1 8.68,6.977a47.33,47.33 0 0 1 4.72,5.423zm-198.4,61l-0.2,8.8l-85.8,0l-4.6,-16.4l72.6,0l-3,3.4l0,-4.8q-0.6,-6.6 -4.4,-11.8q-3.8,-5.2 -9.6,-8.2q-5.8,-3 -12.6,-3a47.198,47.198 0 0 0 -8.205,0.675q-5.598,0.989 -9.995,3.425q-7.4,4.1 -11.2,12a35.863,35.863 0 0 0 -2.728,8.219q-1.072,5.119 -1.072,11.281q0,11 4.6,19.1q4.6,8.1 13,12.5a38.247,38.247 0 0 0 12.461,3.926a49.234,49.234 0 0 0 6.939,0.474a41.166,41.166 0 0 0 10.631,-1.34a36.987,36.987 0 0 0 3.869,-1.26q6.7,-2.6 14.5,-9.4l10.4,14.6a44.135,44.135 0 0 1 -7.204,5.783a54.71,54.71 0 0 1 -4.496,2.617q-6.9,3.6 -14.6,5.7a58.558,58.558 0 0 1 -12.081,2.013a52.875,52.875 0 0 1 -3.019,0.087a64.71,64.71 0 0 1 -16.057,-1.919a53.363,53.363 0 0 1 -12.643,-4.981q-12.5,-6.9 -19.6,-18.9a51.064,51.064 0 0 1 -6.76,-20.947a63.775,63.775 0 0 1 -0.34,-6.653q0,-12.4 4,-22.6a54.826,54.826 0 0 1 9.269,-15.66a51.828,51.828 0 0 1 1.831,-2.04q7.1,-7.5 17,-11.6a54.619,54.619 0 0 1 18.271,-4.019a63.7,63.7 0 0 1 3.229,-0.081a46.94,46.94 0 0 1 16.216,2.776a44.598,44.598 0 0 1 2.784,1.124q8.8,3.9 15.3,10.7a46.765,46.765 0 0 1 9.778,15.521a53.224,53.224 0 0 1 0.222,0.579a52.258,52.258 0 0 1 3.174,14.987q0.175,2.605 0.126,5.313zm656,0l-0.2,8.8l-85.8,0l-4.6,-16.4l72.6,0l-3,3.4l0,-4.8q-0.6,-6.6 -4.4,-11.8q-3.8,-5.2 -9.6,-8.2q-5.8,-3 -12.6,-3a47.198,47.198 0 0 0 -8.205,0.675q-5.598,0.989 -9.995,3.425q-7.4,4.1 -11.2,12a35.863,35.863 0 0 0 -2.728,8.219q-1.072,5.119 -1.072,11.281q0,11 4.6,19.1q4.6,8.1 13,12.5a38.247,38.247 0 0 0 12.461,3.926a49.234,49.234 0 0 0 6.939,0.474a41.166,41.166 0 0 0 10.631,-1.34a36.987,36.987 0 0 0 3.869,-1.26q6.7,-2.6 14.5,-9.4l10.4,14.6a44.135,44.135 0 0 1 -7.204,5.783a54.71,54.71 0 0 1 -4.496,2.617q-6.9,3.6 -14.6,5.7a58.558,58.558 0 0 1 -12.081,2.013a52.875,52.875 0 0 1 -3.019,0.087a64.71,64.71 0 0 1 -16.057,-1.919a53.363,53.363 0 0 1 -12.643,-4.981q-12.5,-6.9 -19.6,-18.9a51.064,51.064 0 0 1 -6.76,-20.947a63.775,63.775 0 0 1 -0.34,-6.653q0,-12.4 4,-22.6a54.826,54.826 0 0 1 9.269,-15.66a51.828,51.828 0 0 1 1.831,-2.04q7.1,-7.5 17,-11.6a54.619,54.619 0 0 1 18.271,-4.019a63.7,63.7 0 0 1 3.229,-0.081a46.94,46.94 0 0 1 16.216,2.776a44.598,44.598 0 0 1 2.784,1.124q8.8,3.9 15.3,10.7a46.765,46.765 0 0 1 9.778,15.521a53.224,53.224 0 0 1 0.222,0.579a52.258,52.258 0 0 1 3.174,14.987q0.175,2.605 0.126,5.313zm22.4,56.4l0,-105l20.6,0l0,21.6l-3.6,2.4a28.528,28.528 0 0 1 4.838,-9.494a35.906,35.906 0 0 1 2.962,-3.406q5.8,-5.9 13.8,-9.6q8,-3.7 16.4,-3.7a50.621,50.621 0 0 1 8.765,0.717q4.969,0.874 9.031,2.813a29.077,29.077 0 0 1 2.204,1.17a27.69,27.69 0 0 1 10.285,10.737a35.794,35.794 0 0 1 1.715,3.563a47.054,47.054 0 0 1 2.663,8.99q1.337,6.769 1.337,15.21l0,64l-20.6,0l0,-62.6a55.7,55.7 0 0 0 -0.324,-6.191q-0.557,-4.975 -2.076,-8.709a18.629,18.629 0 0 0 -2.709,-4.69a15.278,15.278 0 0 0 -4.691,-3.91q-4.355,-2.352 -10.53,-2.352a34.647,34.647 0 0 0 -1.87,0.052a32.991,32.991 0 0 0 -6.941,0.706a27.904,27.904 0 0 0 -4.059,1.194a27.138,27.138 0 0 0 -7.451,4.225a25.427,25.427 0 0 0 -1.249,1.075q-3.7,3.4 -5.8,7.9q-2.1,4.5 -2.1,9.7l0,63.6l-10.2,0l-5.2,0l-5.2,0zm-816.2,-78.2l-6,0.4l0,-70.2l20.6,0l0,148l-20.6,0l0,-25l4,0a15.354,15.354 0 0 1 -1.436,6.386a20.768,20.768 0 0 1 -1.764,3.114a34.196,34.196 0 0 1 -4.803,5.585a43.575,43.575 0 0 1 -3.697,3.115a42.768,42.768 0 0 1 -9.258,5.273a50.201,50.201 0 0 1 -2.942,1.127q-6.9,2.4 -14.1,2.4a49.84,49.84 0 0 1 -16.399,-2.636a45.194,45.194 0 0 1 -9.301,-4.464q-11.3,-7.1 -17.9,-19.4q-6.6,-12.3 -6.6,-28.1a65.539,65.539 0 0 1 1.834,-15.8a54.007,54.007 0 0 1 4.666,-12.3q6.5,-12.3 17.7,-19.4a45.981,45.981 0 0 1 23.418,-7.065a55.574,55.574 0 0 1 1.982,-0.035q7.8,0 15.1,2.5q7.3,2.5 13.1,6.8q5.8,4.3 9.1,9.4a21.851,21.851 0 0 1 2.341,4.723a16.972,16.972 0 0 1 0.959,5.577zm-37.2,62.4a31.216,31.216 0 0 0 10.006,-1.561a27.81,27.81 0 0 0 6.594,-3.239a32.564,32.564 0 0 0 10.708,-11.95a38.817,38.817 0 0 0 0.592,-1.15q4.1,-8.3 4.1,-18.9a46.814,46.814 0 0 0 -1.157,-10.613a38.102,38.102 0 0 0 -2.943,-8.287a34.085,34.085 0 0 0 -6.909,-9.573a31.607,31.607 0 0 0 -4.391,-3.527a28.696,28.696 0 0 0 -14.427,-4.734a35.378,35.378 0 0 0 -2.173,-0.066a31.216,31.216 0 0 0 -10.006,1.561a27.81,27.81 0 0 0 -6.594,3.239a32.564,32.564 0 0 0 -10.708,11.95a38.817,38.817 0 0 0 -0.592,1.15q-4.1,8.3 -4.1,18.9a46.814,46.814 0 0 0 1.157,10.613a38.102,38.102 0 0 0 2.943,8.287a34.085,34.085 0 0 0 6.909,9.573a31.607,31.607 0 0 0 4.391,3.527a28.696,28.696 0 0 0 14.427,4.734a35.378,35.378 0 0 0 2.173,0.066zm693.2,-62.4l-6,0.4l0,-70.2l20.6,0l0,148l-20.6,0l0,-25l4,0a15.354,15.354 0 0 1 -1.436,6.386a20.768,20.768 0 0 1 -1.764,3.114a34.196,34.196 0 0 1 -4.803,5.585a43.575,43.575 0 0 1 -3.697,3.115a42.768,42.768 0 0 1 -9.258,5.273a50.201,50.201 0 0 1 -2.942,1.127q-6.9,2.4 -14.1,2.4a49.84,49.84 0 0 1 -16.399,-2.636a45.194,45.194 0 0 1 -9.301,-4.464q-11.3,-7.1 -17.9,-19.4q-6.6,-12.3 -6.6,-28.1a65.539,65.539 0 0 1 1.834,-15.8a54.007,54.007 0 0 1 4.666,-12.3q6.5,-12.3 17.7,-19.4a45.981,45.981 0 0 1 23.418,-7.065a55.574,55.574 0 0 1 1.982,-0.035q7.8,0 15.1,2.5q7.3,2.5 13.1,6.8q5.8,4.3 9.1,9.4a21.851,21.851 0 0 1 2.341,4.723a16.972,16.972 0 0 1 0.959,5.577zm-37.2,62.4a31.216,31.216 0 0 0 10.006,-1.561a27.81,27.81 0 0 0 6.594,-3.239a32.564,32.564 0 0 0 10.708,-11.95a38.817,38.817 0 0 0 0.592,-1.15q4.1,-8.3 4.1,-18.9a46.814,46.814 0 0 0 -1.157,-10.613a38.102,38.102 0 0 0 -2.943,-8.287a34.085,34.085 0 0 0 -6.909,-9.573a31.607,31.607 0 0 0 -4.391,-3.527a28.696,28.696 0 0 0 -14.427,-4.734a35.378,35.378 0 0 0 -2.173,-0.066a31.216,31.216 0 0 0 -10.006,1.561a27.81,27.81 0 0 0 -6.594,3.239a32.564,32.564 0 0 0 -10.708,11.95a38.817,38.817 0 0 0 -0.592,1.15q-4.1,8.3 -4.1,18.9a46.814,46.814 0 0 0 1.157,10.613a38.102,38.102 0 0 0 2.943,8.287a34.085,34.085 0 0 0 6.909,9.573a31.607,31.607 0 0 0 4.391,3.527a28.696,28.696 0 0 0 14.427,4.734a35.378,35.378 0 0 0 2.173,0.066zm-952,-7.6l13.6,-14.2q3.13,4.472 5.872,7.61a50.735,50.735 0 0 0 1.828,1.99a47.372,47.372 0 0 0 2.794,2.661q1.473,1.286 2.889,2.268a25.482,25.482 0 0 0 1.017,0.671a22.349,22.349 0 0 0 3.587,1.834a18.075,18.075 0 0 0 2.813,0.866a30.648,30.648 0 0 0 5.025,0.656a35.543,35.543 0 0 0 1.775,0.044q7.2,0 12.6,-3.3q5.4,-3.3 8.4,-9.1a26.801,26.801 0 0 0 2.763,-9.164a33.474,33.474 0 0 0 0.237,-4.036l0,-75.4l-25.6,0l0,-20l68.8,0l0,20l-21.6,0l0,77.4a48.879,48.879 0 0 1 -1.421,11.954a42.976,42.976 0 0 1 -1.879,5.746q-3.3,8.1 -9.4,14.1q-6.1,6 -14.4,9.4a45.509,45.509 0 0 1 -12.311,3.068a56.285,56.285 0 0 1 -6.189,0.332q-6.8,0 -13,-1.8q-6.2,-1.8 -11.5,-5.2q-5.3,-3.4 -9.5,-8.1q-4.2,-4.7 -7.2,-10.3zl0,0zm204.4,-52.8l-4.6,-1.6l0,-27.2l20.8,0l0,105l-20.8,0l0,-25l4.8,-1.4a26.621,26.621 0 0 1 -2.832,7.283a33.082,33.082 0 0 1 -2.068,3.217a38.073,38.073 0 0 1 -6.838,7.165a45.057,45.057 0 0 1 -2.562,1.935q-5.7,4 -12.6,6.4q-6.9,2.4 -14.5,2.4q-13,0 -23.7,-7.2a50.715,50.715 0 0 1 -15.433,-16.581a60.627,60.627 0 0 1 -1.667,-3.019a57.687,57.687 0 0 1 -6.048,-20.863a70.99,70.99 0 0 1 -0.352,-7.137a65.539,65.539 0 0 1 1.834,-15.8a54.007,54.007 0 0 1 4.666,-12.3a50.991,50.991 0 0 1 12.028,-15.207a48.49,48.49 0 0 1 5.572,-4.093a45.698,45.698 0 0 1 24.846,-7a54.183,54.183 0 0 1 0.054,0q8.2,0 15,2.4a38.915,38.915 0 0 1 9.157,4.609a35.224,35.224 0 0 1 2.743,2.091q5.1,4.3 8.4,9.9q3.3,5.6 4.1,12zm-35.8,59.2a32.639,32.639 0 0 0 9.623,-1.376a28.344,28.344 0 0 0 6.977,-3.224a31.511,31.511 0 0 0 10.909,-11.948a37.429,37.429 0 0 0 0.391,-0.752a37.959,37.959 0 0 0 3.739,-12.528a48.032,48.032 0 0 0 0.361,-5.972a43.468,43.468 0 0 0 -1.157,-10.217a35.876,35.876 0 0 0 -2.943,-7.983a32.257,32.257 0 0 0 -8.709,-10.755a31.517,31.517 0 0 0 -2.591,-1.845a29.357,29.357 0 0 0 -13.645,-4.482a36.397,36.397 0 0 0 -2.955,-0.118q-9.2,0 -16.3,4.6a31.94,31.94 0 0 0 -10.809,11.857a37.807,37.807 0 0 0 -0.391,0.743a37.215,37.215 0 0 0 -3.776,12.637a46.541,46.541 0 0 0 -0.324,5.563a45.037,45.037 0 0 0 1.123,10.257a36.589,36.589 0 0 0 2.977,8.243q4.1,8.1 11.2,12.7q7.1,4.6 16.3,4.6zm615.6,-59.2l-4.6,-1.6l0,-27.2l20.8,0l0,105l-20.8,0l0,-25l4.8,-1.4a26.621,26.621 0 0 1 -2.832,7.283a33.082,33.082 0 0 1 -2.068,3.217a38.073,38.073 0 0 1 -6.838,7.165a45.057,45.057 0 0 1 -2.562,1.935q-5.7,4 -12.6,6.4q-6.9,2.4 -14.5,2.4q-13,0 -23.7,-7.2a50.715,50.715 0 0 1 -15.433,-16.581a60.627,60.627 0 0 1 -1.667,-3.019a57.687,57.687 0 0 1 -6.048,-20.863a70.99,70.99 0 0 1 -0.352,-7.137a65.539,65.539 0 0 1 1.834,-15.8a54.007,54.007 0 0 1 4.666,-12.3a50.991,50.991 0 0 1 12.028,-15.207a48.49,48.49 0 0 1 5.572,-4.093a45.698,45.698 0 0 1 24.846,-7a54.183,54.183 0 0 1 0.054,0q8.2,0 15,2.4a38.915,38.915 0 0 1 9.157,4.609a35.224,35.224 0 0 1 2.743,2.091q5.1,4.3 8.4,9.9q3.3,5.6 4.1,12zm-35.8,59.2a32.639,32.639 0 0 0 9.623,-1.376a28.344,28.344 0 0 0 6.977,-3.224a31.511,31.511 0 0 0 10.909,-11.948a37.429,37.429 0 0 0 0.391,-0.752a37.959,37.959 0 0 0 3.739,-12.528a48.032,48.032 0 0 0 0.361,-5.972a43.468,43.468 0 0 0 -1.157,-10.217a35.876,35.876 0 0 0 -2.943,-7.983a32.257,32.257 0 0 0 -8.709,-10.755a31.517,31.517 0 0 0 -2.591,-1.845a29.357,29.357 0 0 0 -13.645,-4.482a36.397,36.397 0 0 0 -2.955,-0.118q-9.2,0 -16.3,4.6a31.94,31.94 0 0 0 -10.809,11.857a37.807,37.807 0 0 0 -0.391,0.743a37.215,37.215 0 0 0 -3.776,12.637a46.541,46.541 0 0 0 -0.324,5.563a45.037,45.037 0 0 0 1.123,10.257a36.589,36.589 0 0 0 2.977,8.243q4.1,8.1 11.2,12.7q7.1,4.6 16.3,4.6zm101.6,17l-20.8,0l0,-105l20.8,0l0,33l-2,-8q2.2,-7.6 7.5,-13.8q5.3,-6.2 12.2,-9.8q6.9,-3.6 14.3,-3.6a34.866,34.866 0 0 1 5.327,0.396a31.382,31.382 0 0 1 1.173,0.204a37.198,37.198 0 0 1 1.811,0.395q1.822,0.448 3.049,0.987a10.988,10.988 0 0 1 0.04,0.018l-5.4,22.4q-2.4,-1 -5.3,-1.7a24.518,24.518 0 0 0 -4.998,-0.689a22.56,22.56 0 0 0 -0.702,-0.011q-5.4,0 -10.3,2.1q-4.9,2.1 -8.6,5.8q-3.7,3.7 -5.9,8.6a25.403,25.403 0 0 0 -2.166,9.264a29.73,29.73 0 0 0 -0.034,1.436l0,58z"/>
  </g>
</svg>