<svg width="800" height="800" xmlns="http://www.w3.org/2000/svg"><defs><linearGradient spreadMethod="pad" y2="1" x2="0" y1="0" x1="1" id="prefix__a"><stop offset="8.33%" stop-color="#F2837D" stop-opacity=".992"/><stop offset="16.66%" stop-color="#F2897D" stop-opacity=".992"/><stop offset="24.99%" stop-color="#F28F7D" stop-opacity=".992"/><stop offset="33.32%" stop-color="#F2947D" stop-opacity=".992"/><stop offset="41.65%" stop-color="#F29A7D" stop-opacity=".992"/><stop offset="49.98%" stop-color="#F2A07D" stop-opacity=".992"/><stop offset="58.31%" stop-color="#F2A67D" stop-opacity=".992"/><stop offset="66.64%" stop-color="#F2AC7D" stop-opacity=".992"/><stop offset="74.97%" stop-color="#F2B27D" stop-opacity=".992"/><stop offset="83.3%" stop-color="#F2B87D" stop-opacity=".992"/><stop offset="91.63%" stop-color="#F2BD7D" stop-opacity=".992"/><stop offset="100%" stop-color="#F2C37D" stop-opacity=".992"/></linearGradient></defs><path fill-rule="evenodd" fill="url(#prefix__a)" d="M462.953 202.4c-2.35 2.172-8.445 10.128-13.254 17.3-.97 1.445-6.347 9-11.951 16.788-5.604 7.789-11.909 16.593-14.01 19.567-2.102 2.973-16.462 22.979-31.912 44.458-15.45 21.48-34.86 48.5-43.133 60.048a78784.378 78784.378 0 01-27.95 38.977c-7.1 9.89-14.723 20.517-16.94 23.614-7.732 10.793-6.885 11.11 29.584 11.118 36.011.007 48.175.705 47.41 2.717-.31.818-3.61 10.935-7.332 22.482a98808.775 98808.775 0 01-13.393 41.523c-3.646 11.29-11.098 34.384-16.562 51.32-5.463 16.935-10.86 33.64-11.993 37.121-3.577 10.989.764 13.918 7.557 5.102 3.255-4.225 47.572-65.824 82.405-114.538a8272.875 8272.875 0 0118.422-25.66c38.207-52.894 57.418-79.81 58.824-82.414 3.398-6.298 4.04-6.196-41.053-6.49-21.933-.143-39.878-.472-39.878-.73s.608-2.031 1.351-3.939c.744-1.908 3.77-11.027 6.727-20.265a3553.397 3553.397 0 0111.45-34.99c3.34-10.008 7.527-22.816 9.303-28.46 1.775-5.646 7.248-22.441 12.16-37.324 10.372-31.426 11.067-33.832 10.674-36.899-.413-3.211-3.29-3.4-6.506-.426"/></svg>