<svg xmlns="http://www.w3.org/2000/svg" width="1080" height="1080"><path vector-effect="non-scaling-stroke" d="M229.42 560.592l14.664-16.692a71.519 71.519 0 004.77 5.967q2.619 2.918 5.229 5.033a29.316 29.316 0 005.211 3.43q7.566 3.822 16.458 3.822 4.836 0 8.658-1.404a18.28 18.28 0 002.934-1.365q1.668-.977 2.872-2.24l.2-.217a8.4 8.4 0 002.183-5.743l.001-.107q0-2.496-1.092-4.602a11.444 11.444 0 00-2.385-3.107 13.638 13.638 0 00-.735-.637 21.321 21.321 0 00-2.528-1.744 27.8 27.8 0 00-2.308-1.22 40.073 40.073 0 00-3.728-1.526 49.616 49.616 0 00-2.512-.814 52.87 52.87 0 00-4.534-1.115 64.943 64.943 0 00-2.954-.523q-8.736-2.028-15.288-4.914a40.692 40.692 0 01-6.334-3.455 32.098 32.098 0 01-4.586-3.721q-4.368-4.29-6.474-9.75a31.096 31.096 0 01-1.808-7.36 40.018 40.018 0 01-.298-4.964q0-7.02 3.12-13.026t8.658-10.374a39.825 39.825 0 0110.786-6.01c.663-.248 1.332-.48 2.006-.698a49.426 49.426 0 0114.355-2.33 77.403 77.403 0 019.27.409q5.001.536 9.213 1.765a41.282 41.282 0 018.598 3.553 35.38 35.38 0 014.428 2.921q5.538 4.29 9.282 10.374l-14.82 14.352a40.934 40.934 0 00-4.308-4.912 34.219 34.219 0 00-2.79-2.42q-3.822-2.964-8.268-4.446-4.446-1.482-9.126-1.482-4.567 0-8.029 1.044c-.29.087-.577.181-.863.282a15.37 15.37 0 00-2.962 1.4 11.516 11.516 0 00-2.888 2.5q-2.106 2.574-2.106 6.006a9.562 9.562 0 00.495 3.115c.226.66.531 1.29.909 1.877q1.404 2.184 4.056 3.822c.91.557 1.853 1.057 2.825 1.495q1.435.654 3.093 1.229a65.762 65.762 0 004.937 1.467 83.27 83.27 0 003.809.879 94.807 94.807 0 018.87 2.203 73.92 73.92 0 016.574 2.321 52.391 52.391 0 016.742 3.313 41.168 41.168 0 015.036 3.473 27.85 27.85 0 017.226 8.693c.116.22.23.443.34.667a25.885 25.885 0 012.506 9.018c.098 1.021.147 2.046.146 3.072a38.556 38.556 0 01-1.051 9.215 29.558 29.558 0 01-4.253 9.661 33.109 33.109 0 01-12.387 10.844c-.748.387-1.507.75-2.277 1.09a47.122 47.122 0 01-11.517 3.343c-3.414.54-6.866.805-10.323.791a71.456 71.456 0 01-10.697-.768 56.863 56.863 0 01-7.789-1.728q-8.346-2.496-14.82-7.332a57.305 57.305 0 01-10.973-10.85 64.07 64.07 0 01-.649-.85zm619.788 0l14.664-16.692a71.519 71.519 0 004.77 5.967q2.619 2.918 5.229 5.033a29.316 29.316 0 005.211 3.43q7.566 3.822 16.458 3.822 4.836 0 8.658-1.404a18.28 18.28 0 002.934-1.365q1.668-.977 2.872-2.24l.2-.217a8.4 8.4 0 002.183-5.743l.001-.107q0-2.496-1.092-4.602a11.444 11.444 0 00-2.385-3.107 13.638 13.638 0 00-.735-.637 21.321 21.321 0 00-2.528-1.744 27.8 27.8 0 00-2.308-1.22 40.073 40.073 0 00-3.728-1.526 49.616 49.616 0 00-2.512-.814 52.87 52.87 0 00-4.534-1.115 64.943 64.943 0 00-2.954-.523q-8.736-2.028-15.288-4.914a40.692 40.692 0 01-6.334-3.455 32.098 32.098 0 01-4.586-3.721q-4.368-4.29-6.474-9.75a31.096 31.096 0 01-1.808-7.36 40.018 40.018 0 01-.298-4.964q0-7.02 3.12-13.026t8.658-10.374a39.825 39.825 0 0110.786-6.01c.663-.248 1.332-.48 2.006-.698a49.426 49.426 0 0114.355-2.33 77.403 77.403 0 019.27.409q5.001.536 9.213 1.765a41.282 41.282 0 018.598 3.553 35.38 35.38 0 014.428 2.921q5.538 4.29 9.282 10.374l-14.82 14.352a40.934 40.934 0 00-4.308-4.912 34.219 34.219 0 00-2.79-2.42q-3.822-2.964-8.268-4.446-4.446-1.482-9.126-1.482-4.567 0-8.029 1.044c-.29.087-.577.181-.863.282a15.37 15.37 0 00-2.962 1.4 11.516 11.516 0 00-2.888 2.5q-2.106 2.574-2.106 6.006a9.562 9.562 0 00.495 3.115c.226.66.531 1.29.909 1.877q1.404 2.184 4.056 3.822c.91.557 1.853 1.057 2.825 1.495q1.435.654 3.093 1.229a65.762 65.762 0 004.937 1.467 83.27 83.27 0 003.809.879 94.807 94.807 0 018.87 2.203 73.92 73.92 0 016.574 2.321 52.391 52.391 0 016.742 3.313 41.168 41.168 0 015.036 3.473 27.85 27.85 0 017.226 8.693c.116.22.23.443.34.667a25.885 25.885 0 012.506 9.018c.098 1.021.147 2.046.146 3.072a38.556 38.556 0 01-1.051 9.215 29.558 29.558 0 01-4.253 9.661 33.109 33.109 0 01-12.387 10.844c-.748.387-1.507.75-2.277 1.09a47.122 47.122 0 01-11.517 3.343c-3.414.54-6.866.805-10.323.791a71.456 71.456 0 01-10.697-.768 56.863 56.863 0 01-7.789-1.728q-8.346-2.496-14.82-7.332a57.305 57.305 0 01-10.973-10.85 64.07 64.07 0 01-.649-.85zm98.436 0l14.664-16.692a71.519 71.519 0 004.77 5.967q2.619 2.918 5.229 5.033a29.316 29.316 0 005.211 3.43q7.566 3.822 16.458 3.822 4.836 0 8.658-1.404a18.28 18.28 0 002.934-1.365q1.668-.977 2.872-2.24l.2-.217a8.4 8.4 0 002.183-5.743l.001-.107q0-2.496-1.092-4.602a11.444 11.444 0 00-2.385-3.107 13.638 13.638 0 00-.735-.637 21.321 21.321 0 00-2.528-1.744 27.8 27.8 0 00-2.308-1.22 40.073 40.073 0 00-3.728-1.526 49.616 49.616 0 00-2.512-.814 52.87 52.87 0 00-4.534-1.115 64.943 64.943 0 00-2.954-.523q-8.736-2.028-15.288-4.914a40.692 40.692 0 01-6.334-3.455 32.098 32.098 0 01-4.586-3.721q-4.368-4.29-6.474-9.75a31.096 31.096 0 01-1.808-7.36 40.018 40.018 0 01-.298-4.964q0-7.02 3.12-13.026t8.658-10.374a39.825 39.825 0 0110.786-6.01c.663-.248 1.332-.48 2.006-.698a49.426 49.426 0 0114.355-2.33 77.403 77.403 0 019.27.409q5.001.536 9.213 1.765a41.282 41.282 0 018.598 3.553 35.38 35.38 0 014.428 2.921q5.538 4.29 9.282 10.374l-14.82 14.352a40.934 40.934 0 00-4.308-4.912 34.219 34.219 0 00-2.79-2.42q-3.822-2.964-8.268-4.446-4.446-1.482-9.126-1.482-4.567 0-8.029 1.044c-.29.087-.577.181-.863.282a15.37 15.37 0 00-2.962 1.4 11.516 11.516 0 00-2.888 2.5q-2.106 2.574-2.106 6.006a9.562 9.562 0 00.495 3.115c.226.66.531 1.29.909 1.877q1.404 2.184 4.056 3.822c.91.557 1.853 1.057 2.825 1.495q1.435.654 3.093 1.229a65.762 65.762 0 004.937 1.467 83.27 83.27 0 003.809.879 94.807 94.807 0 018.87 2.203 73.92 73.92 0 016.574 2.321 52.391 52.391 0 016.742 3.313 41.168 41.168 0 015.036 3.473 27.85 27.85 0 017.226 8.693c.116.22.23.443.34.667a25.885 25.885 0 012.506 9.018c.098 1.021.147 2.046.146 3.072a38.556 38.556 0 01-1.051 9.215 29.558 29.558 0 01-4.253 9.661 33.109 33.109 0 01-12.387 10.844c-.748.387-1.507.75-2.277 1.09a47.122 47.122 0 01-11.517 3.343c-3.414.54-6.866.805-10.323.791a71.456 71.456 0 01-10.697-.768 56.863 56.863 0 01-7.789-1.728q-8.346-2.496-14.82-7.332a57.305 57.305 0 01-10.973-10.85 64.07 64.07 0 01-.649-.85zm-107.172-73.008q-4.524-5.616-10.842-9.672-6.318-4.056-13.884-6.162-7.566-2.106-15.366-2.106-12.012 0-22.308 4.212t-17.94 11.778q-7.644 7.566-11.856 17.784a53.878 53.878 0 00-2.221 6.561 60.155 60.155 0 00-1.991 15.669q0 12.324 4.056 22.698t11.466 17.94q7.41 7.566 17.472 11.7a52.962 52.962 0 007.484 2.437 60.88 60.88 0 0014.59 1.697q7.956 0 15.756-1.95a67.653 67.653 0 004.73-1.363 56.793 56.793 0 009.388-4.019q6.318-3.432 10.218-7.644l-11.544-18.252q-3.12 3.276-7.098 5.772-3.978 2.496-8.658 3.9t-9.672 1.404a44.952 44.952 0 01-4.309-.202 36.73 36.73 0 01-9.653-2.216 35.61 35.61 0 01-.831-.33 30.889 30.889 0 01-10.011-6.534q-4.524-4.446-7.02-10.764a34.185 34.185 0 01-1.728-5.921c-.523-2.7-.78-5.446-.768-8.197-.001-1.324.06-2.648.182-3.967a35 35 0 012.392-9.995c.317-.779.66-1.547 1.028-2.303a31.939 31.939 0 015.914-8.461q4.368-4.446 10.218-6.942 5.85-2.496 12.558-2.496 4.992 0 9.438 1.482 4.446 1.482 8.502 4.212a46.998 46.998 0 017.644 6.474l14.664-16.224zM356.56 614.88h-22.308V498.036h21.372l.624 18.564-4.056-1.404a16.922 16.922 0 012.911-6.356 22.589 22.589 0 012.471-2.848 30.824 30.824 0 016.538-4.856 38.736 38.736 0 014.148-2.008q6.396-2.652 13.416-2.652a35.676 35.676 0 0112.54 2.163 33.05 33.05 0 016.648 3.375 38.04 38.04 0 0112.641 13.949c.212.391.419.786.619 1.183a44.75 44.75 0 014.264 13.835 57.5 57.5 0 01.572 8.239 53.763 53.763 0 01-1.365 12.346 44.075 44.075 0 01-3.471 9.65 39.788 39.788 0 01-7.893 10.914 36.646 36.646 0 01-5.367 4.296 33.851 33.851 0 01-17.852 5.516c-.445.015-.89.022-1.336.022q-7.176 0-13.65-2.73a35.237 35.237 0 01-7.3-4.113 30.47 30.47 0 01-3.62-3.141 24.85 24.85 0 01-3.278-4.078 18.552 18.552 0 01-2.416-5.594l5.148-2.184v54.756zm20.124-51.948a21.214 21.214 0 006.359-.925 18.518 18.518 0 004.405-2.039 19.796 19.796 0 006.637-7.038c.245-.429.477-.865.695-1.308a25.508 25.508 0 002.331-7.719c.218-1.551.325-3.116.321-4.683.01-2.082-.185-4.16-.583-6.204a24.249 24.249 0 00-2.069-6.12 21.58 21.58 0 00-4.016-5.656 19.443 19.443 0 00-3.238-2.612 18.544 18.544 0 00-7.734-2.767c-1.03-.133-2.069-.199-3.108-.197q-6.24 0-10.92 2.886a19.197 19.197 0 00-6.546 6.804c-.279.479-.541.967-.786 1.464a25.508 25.508 0 00-2.331 7.719 33.084 33.084 0 00-.321 4.683q0 7.02 2.652 12.402a21.296 21.296 0 003.977 5.653 19.178 19.178 0 003.355 2.693 19.103 19.103 0 008.173 2.812c.912.103 1.83.153 2.747.152zM497.74 518.94l-4.68-.78v-20.124h21.996v82.524h-22.308v-19.812l4.992-.468a26.507 26.507 0 01-4.056 8.268 31.074 31.074 0 01-6.178 6.364 35.14 35.14 0 01-.764.578 34.74 34.74 0 01-8.642 4.607 32.844 32.844 0 01-11.56 2.023q-10.296 0-18.564-5.616a38.6 38.6 0 01-11.841-12.933 46.237 46.237 0 01-1.263-2.355 45.596 45.596 0 01-4.352-14.535 58.174 58.174 0 01-.484-7.617 54.052 54.052 0 011.306-12.124c.788-3.477 2-6.845 3.608-10.028a40.155 40.155 0 017.514-10.445 36.349 36.349 0 015.824-4.687q8.424-5.46 19.188-5.46c2.304-.01 4.604.202 6.867.633 1.456.28 2.889.668 4.287 1.161a30.605 30.605 0 016.578 3.221c.8.524 1.573 1.089 2.314 1.693q3.822 3.12 6.474 7.176t3.744 8.736zm-25.116 43.992c2.019.015 4.03-.247 5.978-.776a18.431 18.431 0 004.942-2.188 19.38 19.38 0 006.753-7.358c.175-.325.342-.655.501-.988a25.74 25.74 0 002.149-7.024c.29-1.83.432-3.68.425-5.534a32.533 32.533 0 00-.566-6.204 24.754 24.754 0 00-2.008-6.12q-2.574-5.304-7.254-8.346a18.851 18.851 0 00-8.45-2.916 23.804 23.804 0 00-2.47-.126 20.578 20.578 0 00-6.128.884 17.775 17.775 0 00-4.558 2.158 20.78 20.78 0 00-6.74 7.371c-.179.321-.35.646-.514.975q-2.652 5.304-2.652 12.324a32.867 32.867 0 00.583 6.334 24.83 24.83 0 002.069 6.224 21.8 21.8 0 003.718 5.415 19.148 19.148 0 003.536 2.931 18.654 18.654 0 008.456 2.86c.741.07 1.485.105 2.23.104zm86.892 17.628h-22.308v-82.524h21.372l.78 26.52-3.744-5.46q1.872-6.396 6.084-11.622t9.906-8.19q5.694-2.964 11.934-2.964 2.652 0 5.148.468 1.911.358 3.365.808c.285.088.567.183.847.284l-5.928 24.336q-1.28-.698-3.125-1.267a29.209 29.209 0 00-1.321-.371q-2.73-.702-5.538-.702c-1.723-.01-3.44.22-5.1.685-.626.178-1.24.392-1.842.641q-3.198 1.326-5.538 3.744-2.34 2.418-3.666 5.694a18.318 18.318 0 00-1.263 5.5 21.811 21.811 0 00-.063 1.676v42.744zm68.172 0h-22.152V465.12h22.152v115.44zm60.528-82.524l-61.62 57.72-6.552-18.252 39-39.468h29.172zm-.156 82.524h-26.676l-29.64-37.284 15.6-12.48 40.716 49.764z"/><g transform="matrix(.78 0 0 .78 123.52 540)"><linearGradient id="prefix__a" gradientUnits="objectBoundingBox" x1="1" y1="0" x2="0" y2="1"><stop offset="8.33%" stop-color="#F2837D" stop-opacity=".992"/><stop offset="16.66%" stop-color="#F2897D" stop-opacity=".992"/><stop offset="24.99%" stop-color="#F28F7D" stop-opacity=".992"/><stop offset="33.32%" stop-color="#F2947D" stop-opacity=".992"/><stop offset="41.65%" stop-color="#F29A7D" stop-opacity=".992"/><stop offset="49.98%" stop-color="#F2A07D" stop-opacity=".992"/><stop offset="58.31%" stop-color="#F2A67D" stop-opacity=".992"/><stop offset="66.64%" stop-color="#F2AC7D" stop-opacity=".992"/><stop offset="74.97%" stop-color="#F2B27D" stop-opacity=".992"/><stop offset="83.3%" stop-color="#F2B87D" stop-opacity=".992"/><stop offset="91.63%" stop-color="#F2BD7D" stop-opacity=".992"/><stop offset="100%" stop-color="#F2C37D" stop-opacity=".992"/></linearGradient><path vector-effect="non-scaling-stroke" transform="translate(-400 -400)" d="M462.953 202.4c-2.35 2.172-8.445 10.128-13.254 17.3-.97 1.445-6.347 9-11.951 16.788-5.604 7.789-11.909 16.593-14.01 19.567-2.102 2.973-16.462 22.979-31.912 44.458-15.45 21.48-34.86 48.5-43.133 60.048a78784.378 78784.378 0 01-27.95 38.977c-7.1 9.89-14.723 20.517-16.94 23.614-7.732 10.793-6.885 11.11 29.584 11.118 36.011.007 48.175.705 47.41 2.717-.31.818-3.61 10.935-7.332 22.482a98808.775 98808.775 0 01-13.393 41.523c-3.646 11.29-11.098 34.384-16.562 51.32-5.463 16.935-10.86 33.64-11.993 37.121-3.577 10.989.764 13.918 7.557 5.102 3.255-4.225 47.572-65.824 82.405-114.538a8272.875 8272.875 0 0118.422-25.66c38.207-52.894 57.418-79.81 58.824-82.414 3.398-6.298 4.04-6.196-41.053-6.49-21.933-.143-39.878-.472-39.878-.73s.608-2.031 1.351-3.939c.744-1.908 3.77-11.027 6.727-20.265a3553.397 3553.397 0 0111.45-34.99c3.34-10.008 7.527-22.816 9.303-28.46 1.775-5.646 7.248-22.441 12.16-37.324 10.372-31.426 11.067-33.832 10.674-36.899-.413-3.211-3.29-3.4-6.506-.426" fill="url(#prefix__a)"/></g></svg>